<svg width="56" height="37" viewBox="0 0 56 37" fill="none" xmlns="http://www.w3.org/2000/svg">
<path fill-rule="evenodd" clip-rule="evenodd" d="M4 0C1.79086 0 0 1.79086 0 4V33C0 35.2091 1.79086 37 4 37H36.8333C39.0425 37 40.8333 35.2091 40.8333 33V4C40.8333 1.79086 39.0425 0 36.8333 0H4ZM7.5 7.5625C6.94771 7.5625 6.5 8.01021 6.5 8.5625V13.125C6.5 13.6773 6.94771 14.125 7.5 14.125H12C12.5523 14.125 13 13.6773 13 13.125V8.5625C13 8.01022 12.5523 7.5625 12 7.5625H7.5ZM45.1667 25.0174V11.8032L54.4897 6.27116C55.1563 5.87562 56 6.35605 56 7.13116V30.0747C56 30.8633 55.1299 31.3416 54.4641 30.919L45.1667 25.0174Z" fill="black" fill-opacity="0.55"/>
</svg>
