<svg width="52" height="42" viewBox="0 0 52 42" fill="none" xmlns="http://www.w3.org/2000/svg">
<path fill-rule="evenodd" clip-rule="evenodd" d="M34.1459 0C35.2822 0 36.321 0.642007 36.8292 1.65836L37.8944 3.78885C38.572 5.14399 39.957 6 41.4721 6H49C50.6569 6 52 7.34315 52 9V39C52 40.6569 50.6569 42 49 42H3C1.34315 42 0 40.6569 0 39V9C0 7.34315 1.34315 6 3 6H10.5274C12.0422 6 13.4271 5.14429 14.1048 3.78951L15.1708 1.65836C15.679 0.642007 16.7178 0 17.8541 0H34.1459ZM38 23C38 29.6274 32.6274 35 26 35C19.3726 35 14 29.6274 14 23C14 16.3726 19.3726 11 26 11C32.6274 11 38 16.3726 38 23ZM26 31C30.4183 31 34 27.4183 34 23C34 18.5817 30.4183 15 26 15C21.5817 15 18 18.5817 18 23C18 27.4183 21.5817 31 26 31Z" fill="black" fill-opacity="0.55"/>
</svg>
