<svg width="56" height="57" viewBox="0 0 56 57" fill="none" xmlns="http://www.w3.org/2000/svg">
<circle cx="28" cy="28.8535" r="26" stroke="black" stroke-opacity="0.55" stroke-width="4"/>
<path fill-rule="evenodd" clip-rule="evenodd" d="M26 41.8535C26 42.4058 26.4477 42.8535 27 42.8535H29C29.5523 42.8535 30 42.4058 30 41.8535V31.8535H40C40.5523 31.8535 41 31.4058 41 30.8535V28.8535C41 28.3012 40.5523 27.8535 40 27.8535H30V17.8535C30 17.3012 29.5523 16.8535 29 16.8535H27C26.4477 16.8535 26 17.3012 26 17.8535V27.8535H16C15.4477 27.8535 15 28.3012 15 28.8535V30.8535C15 31.4058 15.4477 31.8535 16 31.8535H26V41.8535Z" fill="black" fill-opacity="0.55"/>
</svg>
