<svg width="52" height="40" viewBox="0 0 52 40" fill="none" xmlns="http://www.w3.org/2000/svg">
<path fill-rule="evenodd" clip-rule="evenodd" d="M52 4C52 1.79086 50.2091 0 48 0H4C1.79086 0 0 1.79086 0 4V36C0 37.7424 1.11402 39.2245 2.66865 39.7731L32.9472 17.0642L33.1492 16.9196C35.3284 15.432 38.2748 15.6944 40.157 17.5765L52 29.4196V4ZM48 40H9.03277L35.3472 20.2642C35.9105 19.8417 36.6836 19.8658 37.2179 20.3046L37.3285 20.405L51.5794 34.6559C51.7079 34.7844 51.8496 34.8917 52 34.9779V36C52 38.2091 50.2091 40 48 40ZM13 16C10.7909 16 9 14.2091 9 12C9 9.79086 10.7909 8 13 8C15.2091 8 17 9.79086 17 12C17 14.2091 15.2091 16 13 16Z" fill="black" fill-opacity="0.55"/>
</svg>
